
<svg id="batman" xmlns="http://www.w3.org/2000/svg" xmlns:xlink="http://www.w3.org/1999/xlink" x="0px" y="0px" enable-background="new 0 0 1000 1000" version="1.1" viewBox="0 0 1000 1000" xml:space="preserve">
    <metadata>
        Svg Vector Icons : http://www.onlinewebfonts.com/icon
    </metadata>

        <g id="capa_1">
            <path d="M472,291.6c-6.3,7.5-12.5,5.3-15.2-3.7c-0.6-3.8-18.5-78.2-18.5-78.2L406,327.2c0,0-10.4,30.3-25.4,35.1c-31.7,10.2-199.1,10.2-253.9-24.3c-19.6-10.1,10.9-102.4,20.3-117.7C121.6,233.5,10,463.3,10,500.2c0,47.2,92.6,251.4,147.3,290c-23.3-40.8-46.4-118.1-20.3-132.3c34.6-18.9,106-37.1,163.2,55.9c17.3-28.2,101.8-146,202,76.4c66.7-179.5,147-148.8,194.1-66.1c19.2-33.1,84-104.9,166.8-66.1c25.5,16.3,11,70.4-20.3,127.2C912.7,732.6,990,544,990,505.3c0-23.5-78.1-239.8-142.1-295.1c16,38.1,45.7,120,20.3,127.9c-25.5,7.8-194.1,44.1-259,24.3c-18.3-6-18.7-27.6-20.3-35.1c-1.6-7.5-28.2-117-28.2-117s-15.4,69-17.6,76.3c-2.2,7.3-8.9,17.8-20.3,5.1C516.7,280.8,486.2,274.8,472,291.6z"/>
        </g>

</svg>
